<svg xmlns="http://www.w3.org/2000/svg" xmlns:xlink="http://www.w3.org/1999/xlink" version="1.1" style="" xml:space="preserve" width="512" height="512"><rect id="backgroundrect" width="100%" height="100%" x="0" y="0" fill="none" stroke="none"/>

















<g class="currentLayer" style=""><title>Layer 1</title><g id="svg_1" class="selected" fill-opacity="1" fill="#5085b6">
	<circle style="" cx="256" cy="256" r="236.1699981689453" id="svg_2" fill="#5085b6"/>
	<path style="" d="M256,512C114.853,512,0,397.167,0,256C0,114.853,114.853,0,256,0c141.167,0,256,114.853,256,256   C512,397.167,397.167,512,256,512z M256,39.659C136.705,39.659,39.659,136.705,39.659,256S136.705,472.341,256,472.341   S472.341,375.275,472.341,256C472.341,136.705,375.295,39.659,256,39.659z" id="svg_3" fill="#5085b6"/>
</g><g id="svg_4">
	<path style="fill:#FFFFFF;" d="M256,373.193c-10.946,0-19.83-8.864-19.83-19.83V155.067c0-10.946,8.884-19.83,19.83-19.83   c10.946,0,19.83,8.884,19.83,19.83v198.296C275.83,364.329,266.946,373.193,256,373.193z" id="svg_5"/>
	<path style="fill:#FFFFFF;" d="M355.148,274.045H156.852c-10.946,0-19.83-8.884-19.83-19.83c0-10.946,8.884-19.83,19.83-19.83   h198.296c10.966,0,19.83,8.884,19.83,19.83C374.978,265.161,366.114,274.045,355.148,274.045z" id="svg_6"/>
</g><g id="svg_7">
</g><g id="svg_8">
</g><g id="svg_9">
</g><g id="svg_10">
</g><g id="svg_11">
</g><g id="svg_12">
</g><g id="svg_13">
</g><g id="svg_14">
</g><g id="svg_15">
</g><g id="svg_16">
</g><g id="svg_17">
</g><g id="svg_18">
</g><g id="svg_19">
</g><g id="svg_20">
</g><g id="svg_21">
</g></g></svg>