<svg xmlns="http://www.w3.org/2000/svg" height="74" width="74"><rect id="backgroundrect" width="100%" height="100%" x="0" y="0" fill="none" stroke="none" class="" style=""/><g class="currentLayer" style=""><title>Layer 1</title><path d="m27.291 45.306a18.028 18.028 0 1 1 18.028-18.028 18.048 18.048 0 0 1 -18.028 18.028zm0-34.056a16.028 16.028 0 1 0 16.028 16.028 16.045 16.045 0 0 0 -16.028-16.028z" id="svg_1" class="" fill-opacity="1" fill="#bddaef"/><path d="m45.471 13.43a1 1 0 0 1 -.778-.37 20.785 20.785 0 0 0 -2.041-2.175 1 1 0 0 1 1.356-1.47 22.841 22.841 0 0 1 2.238 2.385 1 1 0 0 1 -.775 1.63z" id="svg_2" class="" fill-opacity="1" fill="#bddaef"/><path d="m64.36 71.16a6.761 6.761 0 0 1 -4.967-2.144l-19.53-20.744a24.58 24.58 0 0 1 -29.871-3.695 24.432 24.432 0 0 1 17.515-41.737 1 1 0 0 1 -.007 2 1.657 1.657 0 0 0 -.172 0 22.455 22.455 0 1 0 12.159 41.311 1 1 0 0 1 1.272.154l20.09 21.34a4.822 4.822 0 1 0 6.814-6.818l-21.339-20.078a1 1 0 0 1 -.153-1.272 22.542 22.542 0 0 0 3.474-14.447 22.022 22.022 0 0 0 -1.12-5.071 1 1 0 0 1 1.889-.659 24.1 24.1 0 0 1 1.221 5.531 24.567 24.567 0 0 1 -3.343 15.022l20.743 19.519a6.822 6.822 0 0 1 -4.675 11.788z" id="svg_3" class="" fill-opacity="1" fill="#bddaef"/><path d="m37.539 7.16a1.009 1.009 0 0 1 -.438-.1 21.392 21.392 0 0 0 -2.59-1.051 1 1 0 0 1 .638-1.9 23.334 23.334 0 0 1 2.83 1.15 1 1 0 0 1 -.44 1.9z" id="svg_4" class="" fill-opacity="1" fill="#bddaef"/><path d="m35.635 34.278a1 1 0 0 1 -1-1v-12a1 1 0 0 1 2 0v12a1 1 0 0 1 -1 1z" id="svg_5" class="" fill-opacity="1" fill="#bddaef"/><path d="m30.072 34.278a1 1 0 0 1 -1-1v-8.278a1 1 0 0 1 2 0v8.278a1 1 0 0 1 -1 1z" id="svg_6" class="" fill-opacity="1" fill="#bddaef"/><path d="m24.51 34.278a1 1 0 0 1 -1-1v-12a1 1 0 0 1 2 0v12a1 1 0 0 1 -1 1z" id="svg_7" class="" fill-opacity="1" fill="#bddaef"/><path d="m18.947 34.278a1 1 0 0 1 -1-1v-6a1 1 0 0 1 2 0v6a1 1 0 0 1 -1 1z" id="svg_8" class="" fill-opacity="1" fill="#bddaef"/></g></svg>