<svg xmlns="http://www.w3.org/2000/svg" height="64" width="64" data-name="File management"><rect id="backgroundrect" width="100%" height="100%" x="0" y="0" fill="none" stroke="none"/><g class="currentLayer" style=""><title>Layer 1</title><path d="m54.74 13.327-10-11a1 1 0 0 0 -.74-.327h-34a1 1 0 0 0 -1 1v36a1 1 0 0 0 1.555.832l5.445-3.632 5.445 3.63a.988.988 0 0 0 .871.116l5.765-1.921 5.755.959a1.014 1.014 0 0 0 .8-.217l5.391-4.495 7.373 5.528a1 1 0 0 0 .6.2.983.983 0 0 0 .316-.052l6-2a1 1 0 0 0 .684-.948v-23a1 1 0 0 0 -.26-.673zm-9.74-7.74 6.739 7.413h-6.739zm3.181 32.3-7.581-5.687a1 1 0 0 0 -1.241.031l-5.647 4.707-5.548-.924a1 1 0 0 0 -.48.038l-5.537 1.848-5.592-3.728a1 1 0 0 0 -1.11 0l-4.445 2.96v-33.132h32v10a1 1 0 0 0 1 1h9v21.279z" id="svg_1" class="selected" fill-opacity="1" fill="#bddaef"/><path d="m54.585 40.188a.991.991 0 0 0 -.9-.136l-5.554 1.848-7.6-4.75a1 1 0 0 0 -1.171.079l-5.571 4.644-5.472-1.823a.991.991 0 0 0 -.632 0l-5.538 1.85-5.592-3.728a1 1 0 0 0 -1.11 0l-6 4a1 1 0 0 0 -.445.828v18a1 1 0 0 0 1 1h44a1 1 0 0 0 1-1v-20a1 1 0 0 0 -.415-.812zm-1.585 19.812h-42v-16.465l5-3.335 5.445 3.63a.988.988 0 0 0 .871.116l5.684-1.892 5.684 1.894a1 1 0 0 0 .957-.179l5.443-4.538 7.386 4.617a.99.99 0 0 0 .846.1l4.684-1.56z" id="svg_2" class="selected" fill-opacity="1" fill="#bddaef"/><path d="m14 7h4v2h-4z" id="svg_3" class="selected" fill-opacity="1" fill="#bddaef"/><path d="m20 7h20v2h-20z" id="svg_4" class="selected" fill-opacity="1" fill="#bddaef"/><path d="m14 12h8v2h-8z" id="svg_5" class="selected" fill-opacity="1" fill="#bddaef"/><path d="m24 12h16v2h-16z" id="svg_6" class="selected" fill-opacity="1" fill="#bddaef"/><path d="m14 17h26v2h-26z" id="svg_7" class="selected" fill-opacity="1" fill="#bddaef"/><path d="m14 22h4v2h-4z" id="svg_8" class="selected" fill-opacity="1" fill="#bddaef"/><path d="m20 22h30v2h-30z" id="svg_9" class="selected" fill-opacity="1" fill="#bddaef"/><path d="m14 27h2v2h-2z" id="svg_10" class="selected" fill-opacity="1" fill="#bddaef"/><path d="m22 27h28v2h-28z" id="svg_11" class="selected" fill-opacity="1" fill="#bddaef"/><path d="m18 27h2v2h-2z" id="svg_12" class="selected" fill-opacity="1" fill="#bddaef"/><path d="m34 46h14v2h-14z" id="svg_13" class="selected" fill-opacity="1" fill="#bddaef"/><path d="m42 51h2v2h-2z" id="svg_14" class="selected" fill-opacity="1" fill="#bddaef"/><path d="m30 51h10v2h-10z" id="svg_15" class="selected" fill-opacity="1" fill="#bddaef"/><path d="m14 46h18v2h-18z" id="svg_16" class="selected" fill-opacity="1" fill="#bddaef"/><path d="m14 51h14v2h-14z" id="svg_17" class="selected" fill-opacity="1" fill="#bddaef"/></g></svg>