<svg xmlns="http://www.w3.org/2000/svg" xmlns:xlink="http://www.w3.org/1999/xlink" version="1.1" style="enable-background:new 0 0 512 512;" xml:space="preserve" width="512" height="512"><rect id="backgroundrect" width="100%" height="100%" x="0" y="0" fill="none" stroke="none"/>






























<g class="currentLayer" style=""><title>Layer 1</title><g id="svg_1" class="selected" fill-opacity="1" fill="#cdd7df">
	<g id="svg_2" fill="#cdd7df">
		<path d="M452,40h-24V0h-40v40H124V0H84v40H60C26.916,40,0,66.916,0,100v352c0,33.084,26.916,60,60,60h392    c33.084,0,60-26.916,60-60V100C512,66.916,485.084,40,452,40z M472,452c0,11.028-8.972,20-20,20H60c-11.028,0-20-8.972-20-20V188    h432V452z M472,148H40v-48c0-11.028,8.972-20,20-20h24v40h40V80h264v40h40V80h24c11.028,0,20,8.972,20,20V148z" id="svg_3" fill="#cdd7df"/>
	</g>
</g><g id="svg_4" class="selected" fill-opacity="1" fill="#cdd7df">
	<g id="svg_5" fill="#cdd7df">
		<rect x="76" y="230" width="40" height="40" id="svg_6" fill="#cdd7df"/>
	</g>
</g><g id="svg_7" class="selected" fill-opacity="1" fill="#cdd7df">
	<g id="svg_8" fill="#cdd7df">
		<rect x="156" y="230" width="40" height="40" id="svg_9" fill="#cdd7df"/>
	</g>
</g><g id="svg_10" class="selected" fill-opacity="1" fill="#cdd7df">
	<g id="svg_11" fill="#cdd7df">
		<rect x="236" y="230" width="40" height="40" id="svg_12" fill="#cdd7df"/>
	</g>
</g><g id="svg_13" class="selected" fill-opacity="1" fill="#cdd7df">
	<g id="svg_14" fill="#cdd7df">
		<rect x="316" y="230" width="40" height="40" id="svg_15" fill="#cdd7df"/>
	</g>
</g><g id="svg_16" class="selected" fill-opacity="1" fill="#cdd7df">
	<g id="svg_17" fill="#cdd7df">
		<rect x="396" y="230" width="40" height="40" id="svg_18" fill="#cdd7df"/>
	</g>
</g><g id="svg_19" class="selected" fill-opacity="1" fill="#cdd7df">
	<g id="svg_20" fill="#cdd7df">
		<rect x="76" y="310" width="40" height="40" id="svg_21" fill="#cdd7df"/>
	</g>
</g><g id="svg_22" class="selected" fill-opacity="1" fill="#cdd7df">
	<g id="svg_23" fill="#cdd7df">
		<rect x="156" y="310" width="40" height="40" id="svg_24" fill="#cdd7df"/>
	</g>
</g><g id="svg_25" class="selected" fill-opacity="1" fill="#cdd7df">
	<g id="svg_26" fill="#cdd7df">
		<rect x="236" y="310" width="40" height="40" id="svg_27" fill="#cdd7df"/>
	</g>
</g><g id="svg_28" class="selected" fill-opacity="1" fill="#cdd7df">
	<g id="svg_29" fill="#cdd7df">
		<rect x="316" y="310" width="40" height="40" id="svg_30" fill="#cdd7df"/>
	</g>
</g><g id="svg_31" class="selected" fill-opacity="1" fill="#cdd7df">
	<g id="svg_32" fill="#cdd7df">
		<rect x="76" y="390" width="40" height="40" id="svg_33" fill="#cdd7df"/>
	</g>
</g><g id="svg_34" class="selected" fill-opacity="1" fill="#cdd7df">
	<g id="svg_35" fill="#cdd7df">
		<rect x="156" y="390" width="40" height="40" id="svg_36" fill="#cdd7df"/>
	</g>
</g><g id="svg_37" class="selected" fill-opacity="1" fill="#cdd7df">
	<g id="svg_38" fill="#cdd7df">
		<rect x="236" y="390" width="40" height="40" id="svg_39" fill="#cdd7df"/>
	</g>
</g><g id="svg_40" class="selected" fill-opacity="1" fill="#cdd7df">
	<g id="svg_41" fill="#cdd7df">
		<rect x="316" y="390" width="40" height="40" id="svg_42" fill="#cdd7df"/>
	</g>
</g><g id="svg_43" class="selected" fill-opacity="1" fill="#cdd7df">
	<g id="svg_44" fill="#cdd7df">
		<rect x="396" y="310" width="40" height="40" id="svg_45" fill="#cdd7df"/>
	</g>
</g><g id="svg_46">
</g><g id="svg_47">
</g><g id="svg_48">
</g><g id="svg_49">
</g><g id="svg_50">
</g><g id="svg_51">
</g><g id="svg_52">
</g><g id="svg_53">
</g><g id="svg_54">
</g><g id="svg_55">
</g><g id="svg_56">
</g><g id="svg_57">
</g><g id="svg_58">
</g><g id="svg_59">
</g><g id="svg_60">
</g></g></svg>