<svg xmlns="http://www.w3.org/2000/svg" xmlns:xlink="http://www.w3.org/1999/xlink" version="1.1" style="enable-background:new 0 0 480.006 480.006;" xml:space="preserve" width="480.0060119628906" height="480.0060119628906"><rect id="backgroundrect" width="100%" height="100%" x="0" y="0" fill="none" stroke="none"/>


























<g class="currentLayer" style=""><title>Layer 1</title><g id="svg_1" class="selected" fill-opacity="1" fill="#bddaef">
	<g id="svg_2" fill="#bddaef">
		<rect x="40.00299835205078" y="48.00600051879883" width="104" height="16" id="svg_3" fill="#bddaef"/>
	</g>
</g><g class="selected" id="svg_49" fill="#bddaef" fill-opacity="1">
	<g id="svg_51" fill="#bddaef" fill-opacity="1">
		<rect x="40.00299835205078" y="48.00600051879883" width="104" height="16" id="svg_3" fill="#bddaef" fill-opacity="1"/>
	</g>
</g><g id="svg_4" class="selected" fill="#bddaef" fill-opacity="1">
	<g id="svg_5" fill="#bddaef" fill-opacity="1">
		<rect x="40.00299835205078" y="80.00599670410156" width="104" height="16" id="svg_6" fill="#bddaef" fill-opacity="1"/>
	</g>
</g><g id="svg_7" class="selected" fill="#bddaef" fill-opacity="1">
	<g id="svg_8" fill="#bddaef" fill-opacity="1">
		<rect x="40.00299835205078" y="112.00599670410156" width="72" height="16" id="svg_9" fill="#bddaef" fill-opacity="1"/>
	</g>
</g><g id="svg_10" class="selected" fill="#bddaef" fill-opacity="1">
	<g id="svg_11" fill="#bddaef" fill-opacity="1">
		<rect x="40.00299835205078" y="144.00599670410156" width="72" height="16" id="svg_12" fill="#bddaef" fill-opacity="1"/>
	</g>
</g><g id="svg_13" class="selected" fill="#bddaef" fill-opacity="1">
	<g id="svg_14" fill="#bddaef" fill-opacity="1">
		<rect x="0.003000000026077032" y="464.0060119628906" width="480" height="16" id="svg_15" fill="#bddaef" fill-opacity="1"/>
	</g>
</g><g id="svg_16" class="selected" fill="#bddaef" fill-opacity="1">
	<g id="svg_17" fill="#bddaef" fill-opacity="1">
		<path d="M463.163,68.43l-32-64c-1.973-3.954-6.776-5.56-10.73-3.587c-0.002,0.001-0.004,0.002-0.006,0.003l-64,32    c-3.954,1.975-5.559,6.782-3.584,10.736s6.782,5.559,10.736,3.584l46.352-23.16l-12.648,36.112    C341.69,218.446,198.501,329.522,31.323,344.006l1.36,16C206.16,344.978,354.737,229.701,412.395,65.398l12.912-36.896    l23.536,47.08c1.975,3.954,6.782,5.559,10.736,3.584C463.534,77.191,465.138,72.385,463.163,68.43z" id="svg_18" fill="#bddaef" fill-opacity="1"/>
	</g>
</g><g id="svg_19" class="selected" fill="#bddaef" fill-opacity="1">
	<g id="svg_20" fill="#bddaef" fill-opacity="1">
		<path d="M96.003,384.006h-56c-4.418,0-8,3.582-8,8v48c0,4.418,3.582,8,8,8h56c4.418,0,8-3.582,8-8v-48    C104.003,387.588,100.421,384.006,96.003,384.006z M88.003,432.006h-40v-32h40V432.006z" id="svg_21" fill="#bddaef" fill-opacity="1"/>
	</g>
</g><g id="svg_22" class="selected" fill="#bddaef" fill-opacity="1">
	<g id="svg_23" fill="#bddaef" fill-opacity="1">
		<path d="M184.003,360.006h-56c-4.418,0-8,3.582-8,8v72c0,4.418,3.582,8,8,8h56c4.418,0,8-3.582,8-8v-72    C192.003,363.588,188.421,360.006,184.003,360.006z M176.003,432.006h-40v-56h40V432.006z" id="svg_24" fill="#bddaef" fill-opacity="1"/>
	</g>
</g><g id="svg_25" class="selected" fill="#bddaef" fill-opacity="1">
	<g id="svg_26" fill="#bddaef" fill-opacity="1">
		<path d="M272.003,320.006h-56c-4.418,0-8,3.582-8,8v112c0,4.418,3.582,8,8,8h56c4.418,0,8-3.582,8-8v-112    C280.003,323.588,276.421,320.006,272.003,320.006z M264.003,432.006h-40v-96h40V432.006z" id="svg_27" fill="#bddaef" fill-opacity="1"/>
	</g>
</g><g id="svg_28" class="selected" fill="#bddaef" fill-opacity="1">
	<g id="svg_29" fill="#bddaef" fill-opacity="1">
		<path d="M360.003,264.006h-56c-4.418,0-8,3.582-8,8v168c0,4.418,3.582,8,8,8h56c4.418,0,8-3.582,8-8v-168    C368.003,267.588,364.421,264.006,360.003,264.006z M352.003,432.006h-40v-152h40V432.006z" id="svg_30" fill="#bddaef" fill-opacity="1"/>
	</g>
</g><g id="svg_31" class="selected" fill="#bddaef" fill-opacity="1">
	<g id="svg_32" fill="#bddaef" fill-opacity="1">
		<path d="M448.003,152.006h-56c-4.418,0-8,3.582-8,8v280c0,4.418,3.582,8,8,8h56c4.418,0,8-3.582,8-8v-280    C456.003,155.588,452.421,152.006,448.003,152.006z M440.003,432.006h-40v-264h40V432.006z" id="svg_33" fill="#bddaef" fill-opacity="1"/>
	</g>
</g><g id="svg_34" class="selected" fill-opacity="1" fill="#bddaef">
</g><g id="svg_35" class="selected" fill-opacity="1" fill="#bddaef">
</g><g id="svg_36" class="selected" fill-opacity="1" fill="#bddaef">
</g><g id="svg_37" class="selected" fill-opacity="1" fill="#bddaef">
</g><g id="svg_38" class="selected" fill-opacity="1" fill="#bddaef">
</g><g id="svg_39" class="selected" fill-opacity="1" fill="#bddaef">
</g><g id="svg_40" class="selected" fill-opacity="1" fill="#bddaef">
</g><g id="svg_41" class="selected" fill-opacity="1" fill="#bddaef">
</g><g id="svg_42" class="selected" fill-opacity="1" fill="#bddaef">
</g><g id="svg_43" class="selected" fill-opacity="1" fill="#bddaef">
</g><g id="svg_44" class="selected" fill-opacity="1" fill="#bddaef">
</g><g id="svg_45" class="selected" fill-opacity="1" fill="#bddaef">
</g><g id="svg_46" class="selected" fill-opacity="1" fill="#bddaef">
</g><g id="svg_47" class="selected" fill-opacity="1" fill="#bddaef">
</g><g id="svg_48" class="selected" fill-opacity="1" fill="#bddaef">
</g></g></svg>