<svg xmlns="http://www.w3.org/2000/svg" enable-background="new 0 0 300 300" height="300" width="300"><rect id="backgroundrect" width="100%" height="100%" x="0" y="0" fill="none" stroke="none"/><g class="currentLayer" style=""><title>Layer 1</title><g id="svg_1" class="selected" fill-opacity="1" fill="#bddaef"><path d="m274 99.96h-12v-12c0-2.209-1.789-4-4-4h-12v-12c0-2.209-1.789-4-4-4h-52v-4.686c4.801 1.701 10.375.182 13.598-4.113 1.926-2.564 2.734-5.725 2.281-8.896-.453-3.176-2.113-5.982-4.68-7.902l-16-12c-4.125-3.098-10.273-3.098-14.398 0l-16 11.998c-2.566 1.922-4.227 4.729-4.68 7.904-.453 3.172.355 6.332 2.281 8.896v.002c3.223 4.293 8.797 5.805 13.598 4.111v4.686h-32c-2.211 0-4 1.791-4 4s1.789 4 4 4h32v4c0 6.617 5.383 12 12 12s12-5.383 12-12v-4h48v88h-144v-88h23.719c2.211 0 4-1.791 4-4s-1.789-4-4-4h-91.719c-2.211 0-4 1.791-4 4v96c0 2.209 1.789 4 4 4h12v12c0 2.209 1.789 4 4 4h12v12c0 2.209 1.789 4 4 4h216c2.211 0 4-1.791 4-4v-96c0-2.209-1.789-4-4-4zm-92-44v24c0 2.205-1.793 4-4 4s-4-1.795-4-4v-24c0-1.516-.855-2.9-2.211-3.578-.566-.283-1.18-.422-1.789-.422-.848 0-1.695.27-2.398.799l-3.199 2.4c-1.762 1.316-4.277.967-5.602-.799-.641-.855-.91-1.91-.762-2.967.152-1.057.703-1.992 1.559-2.633l16-12c1.398-1.047 3.406-1.047 4.805 0l16 12.002c.855.639 1.406 1.574 1.559 2.631.148 1.059-.121 2.111-.762 2.965-1.324 1.768-3.836 2.123-5.602.799l-3.199-2.398c-1.211-.91-2.836-1.059-4.188-.377-1.356.678-2.211 2.063-2.211 3.578zm60 116c2.211 0 4-1.791 4-4v-76h8v88h-144v-8zm-212-96h56v88h-56zm16 96h56v8h-56zm16 16h56v8h-56zm208 8h-144v-8h132c2.211 0 4-1.791 4-4v-76h8z" id="svg_2" fill="#bddaef"/><path d="m132.859 95.96h13.141c2.211 0 4-1.791 4-4s-1.789-4-4-4h-13.141c-10.398 0-18.859 9.57-18.859 21.336v2.664h-4c-2.211 0-4 1.791-4 4s1.789 4 4 4h4v10.664c0 11.766 8.461 21.336 18.859 21.336h13.141c2.211 0 4-1.791 4-4s-1.789-4-4-4h-13.141c-5.616 0-10.195-5.281-10.75-12h11.891c2.211 0 4-1.791 4-4s-1.789-4-4-4h-12v-4h12c2.211 0 4-1.791 4-4s-1.789-4-4-4h-12v-2.664c0-7.353 4.871-13.336 10.859-13.336z" id="svg_3" fill="#bddaef"/><path d="m38 83.96h24v16h-24z" id="svg_4" fill="#bddaef"/><path d="m38 147.96h24v8h-24z" id="svg_5" fill="#bddaef"/><path d="m206 83.96h24v8h-24z" id="svg_6" fill="#bddaef"/><path d="m122 211.861c-2.264 0-4.1 1.835-4.1 4.099s1.836 4.099 4.1 4.099 4.1-1.835 4.1-4.099-1.836-4.099-4.1-4.099z" id="svg_7" fill="#bddaef"/><circle cx="83.94999694824219" cy="230.00999450683594" r="6.050000190734863" id="svg_8" fill="#bddaef"/><path d="m257.199 222.363-16-12c-4.125-3.098-10.273-3.098-14.398 0l-16 11.998c-2.566 1.922-4.227 4.729-4.68 7.904-.453 3.172.355 6.332 2.281 8.896v.002c3.223 4.291 8.793 5.799 13.598 4.111v16.686c0 6.617 5.383 12 12 12s12-5.383 12-12v-16.686c4.805 1.695 10.375.18 13.598-4.113 1.926-2.564 2.734-5.725 2.281-8.896-.453-3.176-2.113-5.982-4.68-7.902zm-4 11.996c-1.324 1.77-3.836 2.123-5.602.799l-3.199-2.398c-1.207-.912-2.836-1.055-4.188-.377-1.355.678-2.211 2.062-2.211 3.578v24c0 2.205-1.793 4-4 4s-4-1.795-4-4v-24c0-1.516-.855-2.9-2.211-3.578-.566-.283-1.18-.422-1.789-.422-.848 0-1.695.27-2.398.799l-3.199 2.4c-1.762 1.32-4.277.965-5.602-.799-.641-.855-.91-1.91-.762-2.967.152-1.057.703-1.992 1.559-2.633l16-12c1.398-1.047 3.406-1.047 4.805 0l16 12.002c.855.639 1.406 1.574 1.559 2.631.148 1.059-.121 2.111-.762 2.965z" id="svg_9" fill="#bddaef"/></g></g></svg>